<?xml version="1.0" encoding="utf-8"?>
<!-- Generator: Adobe Illustrator 22.0.0, SVG Export Plug-In . SVG Version: 6.00 Build 0)  -->
<svg version="1.1" xmlns="http://www.w3.org/2000/svg" xmlns:xlink="http://www.w3.org/1999/xlink" x="0px" y="0px"
	 viewBox="0 0 512 512" style="enable-background:new 0 0 512 512;" xml:space="preserve">
<style type="text/css">
	.st0{fill:#E1902B;}
	.st1{fill:#3D2A3D;}
	.st2{fill:#E7AD84;}
	.st3{fill:#2961A5;}
	.st4{fill:#FFD66C;}
	.st5{fill:#A18FA1;}
	.st6{fill:#DB4646;}
	.st7{fill:#78BEDE;}
	.st8{fill:#43B06D;}
	.st9{fill:#9EC853;}
	.st10{fill:#217D44;}
	.st11{fill:#DBDBDB;}
	.st12{fill:#FFFFFF;}
	.st13{fill:#C41E1E;}
	.st14{fill:#B9BDC2;}
	.st15{fill:#856685;}
	.st16{fill:#E8E8E8;}
	.st17{fill:#BDBDBD;}
	.st18{fill:#839797;}
	.st19{fill:#D9D9D9;}
	.st20{fill:#F0F0F0;}
	.st21{fill:#BFBFBF;}
	.st22{fill:#706470;}
	.st23{fill:#4B1E4C;}
	.st24{fill:#614F61;}
	.st25{fill:#A37352;}
	.st26{fill:#7A6C7A;}
	.st27{fill:#919191;}
	.st28{fill:#6E6E6E;}
	.st29{fill:#B8B8B8;}
	.st30{fill:#FF826E;}
	.st31{fill:#7D5737;}
	.st32{fill:#2E1B17;}
	.st33{fill:#483324;}
	.st34{fill:#9E9E9E;}
	.st35{fill:#7D6F7D;}
	.st36{fill:#6B4A6B;}
	.st37{fill:#4A80C2;}
	.st38{fill:#B34B0F;}
	.st39{fill:#FFC682;}
	.st40{clip-path:url(#SVGID_2_);fill:#DBDBDB;}
	.st41{fill:#FFDBC5;}
	.st42{fill:#E3E3E3;}
	.st43{clip-path:url(#SVGID_4_);}
	.st44{clip-path:url(#SVGID_6_);fill:#DBDBDB;}
	.st45{clip-path:url(#SVGID_8_);}
	.st46{fill:#E8B494;}
	.st47{fill:#F2D7C4;}
	.st48{fill:#5D5660;}
	.st49{fill:#3B2D3F;}
	.st50{fill:#756275;}
	.st51{fill:#E1622B;}
	.st52{fill:#F0E9E9;}
	.st53{fill:#4D917B;}
	.st54{fill:#C4C4C4;}
	.st55{fill:#14855A;}
	.st56{fill:#C21B1B;}
</style>
<g id="Layer_9">
	<path class="st0" d="M512,256c0,141.4-114.6,256-256,256C114.6,512,0,397.4,0,256C0,114.6,114.6,0,256,0C397.4,0,512,114.6,512,256
		z"/>
</g>
<g id="Layer_7">
	<g>
		<path class="st1" d="M351.2,232c16.7,16.7,16.7,43.9,0,60.6l-61.7,61.7c-16.7,16.7-43.9,16.7-60.6,0l-0.2-0.2
			c-16.7-16.7-16.7-43.9,0-60.6l61.7-61.7c16.7-16.7,43.9-16.7,60.6,0L351.2,232z"/>
		<path class="st1" d="M297.4,239.4c21.1,21.1,24.6,52,7.7,68.9c-16.9,16.9-47.7,13.5-68.9-7.7c-21.1-21.1-24.6-52-7.7-68.9
			C245.4,214.8,276.3,218.2,297.4,239.4z"/>
		<g>
			<path class="st1" d="M261.2,154.5c13.1,13.1,13.1,34.2,0,47.3c-13.1,13.1-34.2,13.1-47.3,0c-13.1-13.1-13.1-34.2,0-47.3
				C227,141.4,248.1,141.4,261.2,154.5z"/>
			<path class="st1" d="M198.6,217.1c13.1,13.1,13.1,34.2,0,47.3c-13.1,13.1-34.2,13.1-47.3,0c-13.1-13.1-13.1-34.2,0-47.3
				C164.4,204,185.5,204,198.6,217.1z"/>
		</g>
		<g>
			<path class="st1" d="M194.1,303c10.9,10.9,10.9,28.7,0,39.6c-10.9,10.9-28.7,10.9-39.6,0c-10.9-10.9-10.9-28.7,0-39.6
				C165.4,292.1,183.1,292.1,194.1,303z"/>
			<path class="st1" d="M339.5,157.6c10.9,10.9,10.9,28.7,0,39.6c-10.9,10.9-28.7,10.9-39.6,0c-10.9-10.9-10.9-28.7,0-39.6
				C310.8,146.7,328.5,146.7,339.5,157.6z"/>
		</g>
	</g>
</g>
</svg>
